HIERARCHY
ROOT Pelvis
{
	OFFSET 0.000000 0.000000 0.000000
	CHANNELS 6 Xposition Yposition Zposition Xrotation Yrotation Zrotation
	JOINT LeftUpLeg_virtual
	{
		OFFSET 0.000000 0.000000 0.000000
		CHANNELS 3 Xrotation Yrotation Zrotation
		JOINT LeftUpLeg
		{
			OFFSET 18.735201 -5.666702 -4.541200
			CHANNELS 3 Xrotation Yrotation Zrotation
			JOINT LeftLeg
			{
				OFFSET -0.021200 -31.938179 0.493100
				CHANNELS 3 Xrotation Yrotation Zrotation
				JOINT LeftFoot
				{
					OFFSET 0.021200 -31.938179 -4.336299
					CHANNELS 3 Xrotation Yrotation Zrotation
					JOINT LeftToeBase
					{
						OFFSET 0.943001 -26.722000 15.023500
						CHANNELS 3 Xrotation Yrotation Zrotation
						End Site
						{
							OFFSET 0 0 0
						}
					}
				}
			}
		}
	}
	JOINT RightUpLeg_virtual
	{
		OFFSET 0.000000 0.000000 0.000000
		CHANNELS 3 Xrotation Yrotation Zrotation
		JOINT RightUpLeg
		{
			OFFSET -18.735201 -5.666702 -4.541200
			CHANNELS 3 Xrotation Yrotation Zrotation
			JOINT RightLeg
			{
				OFFSET 0.018946 -31.938133 0.493100
				CHANNELS 3 Xrotation Yrotation Zrotation
				JOINT RightFoot
				{
					OFFSET -0.018946 -31.938126 -4.336299
					CHANNELS 3 Xrotation Yrotation Zrotation
					JOINT RightToeBase
					{
						OFFSET -0.943001 -26.722004 15.023500
						CHANNELS 3 Xrotation Yrotation Zrotation
						End Site
						{
							OFFSET 0 0 0
						}
					}
				}
			}
		}
	}
	JOINT Hips_virtual
	{
		OFFSET 0.000000 0.000000 0.000000
		CHANNELS 3 Xrotation Yrotation Zrotation
		JOINT Hips
		{
			OFFSET -0.000000 -0.000000 -0.000000
			CHANNELS 3 Xrotation Yrotation Zrotation
			JOINT Spine
			{
				OFFSET 0.000000 10.199997 -0.299500
				CHANNELS 3 Xrotation Yrotation Zrotation
				JOINT Spine1
				{
					OFFSET 0.000000 11.900002 -1.516600
					CHANNELS 3 Xrotation Yrotation Zrotation
					JOINT Spine2
					{
						OFFSET 0.000000 13.600006 -2.842500
						CHANNELS 3 Xrotation Yrotation Zrotation
						JOINT Neck_virtual
						{
							OFFSET 0.000000 0.000000 0.000000
							CHANNELS 3 Xrotation Yrotation Zrotation
							JOINT Neck
							{
								OFFSET 0.000000 9.624100 -2.890100
								CHANNELS 3 Xrotation Yrotation Zrotation
								JOINT Head
								{
									OFFSET 0.000000 14.068802 -1.351900
									CHANNELS 3 Xrotation Yrotation Zrotation
									End Site
									{
										OFFSET 0 0 0
									}
								}
							}
						}
						JOINT LeftShoulder_virtual
						{
							OFFSET 0.000000 0.000000 0.000000
							CHANNELS 3 Xrotation Yrotation Zrotation
							JOINT LeftShoulder
							{
								OFFSET 15.263000 10.923401 -0.547700
								CHANNELS 3 Xrotation Yrotation Zrotation
								JOINT LeftArm
								{
									OFFSET 25.438599 -2.830597 -13.032500
									CHANNELS 3 Xrotation Yrotation Zrotation
									JOINT LeftForeArm
									{
										OFFSET 29.960503 0.000000 0.000000
										CHANNELS 3 Xrotation Yrotation Zrotation
										JOINT LeftHand
										{
											OFFSET 27.849251 0.000000 0.000000
											CHANNELS 3 Xrotation Yrotation Zrotation
											End Site
											{
												OFFSET 0 0 0
											}
										}
									}
								}
							}
						}
						JOINT RightShoulder_virtual
						{
							OFFSET 0.000000 0.000000 0.000000
							CHANNELS 3 Xrotation Yrotation Zrotation
							JOINT RightShoulder
							{
								OFFSET -15.263000 10.923401 -0.547700
								CHANNELS 3 Xrotation Yrotation Zrotation
								JOINT RightArm
								{
									OFFSET -25.438599 -2.830597 -13.032500
									CHANNELS 3 Xrotation Yrotation Zrotation
									JOINT RightForeArm
									{
										OFFSET -29.960503 0.000000 0.000000
										CHANNELS 3 Xrotation Yrotation Zrotation
										JOINT RightHand
										{
											OFFSET -27.849251 0.000000 0.000000
											CHANNELS 3 Xrotation Yrotation Zrotation
											End Site
											{
												OFFSET 0 0 0
											}
										}
									}
								}
							}
						}
					}
				}
			}
		}
	}
}
MOTION
Frames: 7
Frame Time: 0.03333333
-4.638336 85.997154 12.134857 0.000000 0.000000 0.000000 -5.022969 -47.300528 -9.027884 -40.924530 -15.471538 12.891985 39.430067 14.634867 -6.196996 10.604058 -4.753570 -16.468324 0.000000 0.000000 0.000000 -4.847633 -45.190461 -8.516057 -18.814453 -11.359510 -18.408024 51.548370 -15.501415 -11.073193 -7.733115 2.481740 40.644079 0.000000 0.000000 0.000000 -6.021455 -45.512153 -9.334540 -0.607508 0.102429 0.029144 -0.594650 1.504225 -3.100166 13.103082 3.376936 -2.204299 0.000000 0.000000 0.000000 9.909724 7.993001 -2.880299 1.108279 4.450237 2.562258 0.000000 0.000000 0.000000 14.863238 6.690859 -3.202366 -2.457502 -13.510994 -14.186507 16.269690 -2.105332 -50.490944 30.338679 -74.515246 22.943702 0.000000 0.000000 0.000000 8.028317 8.233771 -4.022090 10.319524 16.913775 4.486382 9.122467 -23.155782 86.486451 48.584228 46.135155 -54.052259 0.000000 0.000000 0.000000 
-4.514990 85.791748 11.739342 0.000000 0.000000 0.000000 -4.028268 -46.368850 -8.685305 -41.085176 -15.540499 13.546045 38.406249 14.768011 -5.758518 10.340954 -3.693950 -16.881808 0.000000 0.000000 0.000000 -4.359522 -44.290529 -8.323591 -18.833821 -10.841531 -17.644112 51.861486 -15.476720 -10.951417 -10.710277 0.685087 39.555825 0.000000 0.000000 0.000000 -5.368001 -44.824978 -9.131173 -0.629503 0.169400 0.048547 -0.474389 1.413174 -2.909363 13.328553 3.388295 -2.236788 0.000000 0.000000 0.000000 10.129917 7.995221 -2.841084 1.061141 4.399327 2.497937 0.000000 0.000000 0.000000 15.090427 6.704695 -3.223042 -2.037284 -13.020267 -13.678226 18.699371 -1.684831 -51.712298 32.297444 -75.115968 24.731623 0.000000 0.000000 0.000000 8.114382 8.174838 -3.923661 10.477316 16.577749 4.053088 8.314645 -22.140012 85.177909 47.755235 45.691510 -53.595128 0.000000 0.000000 0.000000 
-4.784022 85.002602 10.712154 0.000000 0.000000 0.000000 -1.678752 -44.252884 -8.005534 -43.694786 -14.998030 15.254736 38.048464 15.083904 -4.914126 10.154306 -3.111362 -16.921999 0.000000 0.000000 0.000000 -2.505391 -42.394960 -7.932676 -20.170495 -11.013106 -16.816020 53.149663 -14.440313 -10.145580 -13.021559 -0.530972 39.049561 0.000000 0.000000 0.000000 -3.010408 -42.980871 -8.604578 -0.650512 0.222853 0.071862 -0.303865 1.083428 -2.947185 13.498274 3.409126 -2.114628 0.000000 0.000000 0.000000 10.713422 7.989758 -2.727483 0.946897 4.238745 2.410795 0.000000 0.000000 0.000000 15.455070 6.699107 -3.080453 -1.667576 -12.521802 -12.473041 22.359087 -1.586047 -52.604150 38.333364 -77.310365 31.061498 0.000000 0.000000 0.000000 8.291823 8.196797 -3.626191 10.722771 16.077733 3.359512 7.661445 -19.891382 82.819752 47.911639 46.663712 -54.541144 0.000000 0.000000 0.000000 
-5.330259 83.925026 9.255470 0.000000 0.000000 0.000000 1.721064 -41.448976 -7.229929 -48.940607 -14.032001 17.953977 39.257643 15.175089 -4.268599 10.585938 -3.773500 -17.280507 0.000000 0.000000 0.000000 0.527990 -39.804007 -7.475993 -22.719726 -12.322616 -16.055534 54.941997 -12.630506 -9.043637 -14.211025 -1.002276 38.797650 0.000000 0.000000 0.000000 0.726387 -40.489088 -7.860310 -0.663045 0.241693 0.068819 -0.266019 0.516100 -3.201577 13.604584 3.394829 -1.866060 0.000000 0.000000 0.000000 11.481650 7.987710 -2.544329 0.794688 3.955395 2.296679 0.000000 0.000000 0.000000 15.861057 6.668537 -2.838717 -1.355210 -12.074038 -10.562600 26.683927 -1.837517 -53.479404 54.145607 -80.577736 47.667364 0.000000 0.000000 0.000000 8.555238 8.256688 -3.222883 11.016644 15.249792 2.647341 8.009781 -16.878174 80.139955 50.119710 49.566485 -57.745363 0.000000 0.000000 0.000000 
-6.076409 82.708321 7.680786 0.000000 0.000000 0.000000 5.949834 -38.251026 -6.462687 -56.798139 -13.388990 21.649394 42.251383 14.911389 -4.170718 11.709540 -5.576783 -17.782990 0.000000 0.000000 0.000000 4.537092 -36.999432 -7.021610 -25.909740 -13.584515 -14.774360 56.140627 -9.889866 -8.423619 -13.705424 -0.279699 38.834021 0.000000 0.000000 0.000000 5.434625 -37.749124 -7.036528 -0.651688 0.202017 0.074339 -0.379288 -0.203449 -3.505076 13.706194 3.326962 -1.521725 0.000000 0.000000 0.000000 12.229350 7.936452 -2.313869 0.568129 3.540310 2.129861 0.000000 0.000000 0.000000 16.307825 6.627814 -2.552841 -1.075572 -11.642907 -8.103983 30.981895 -2.094990 -55.066413 92.304577 -82.575607 87.060829 0.000000 0.000000 0.000000 8.901652 8.322539 -2.824844 11.282986 13.906494 2.058106 9.622338 -13.782970 77.712697 54.918406 54.187340 -63.657459 0.000000 0.000000 0.000000 
-6.874833 81.336617 6.224136 0.000000 0.000000 0.000000 10.907533 -35.012567 -5.726986 -66.304157 -13.505415 25.305330 46.111430 14.155677 -4.351466 12.826955 -7.922792 -18.040980 0.000000 0.000000 0.000000 9.569466 -34.256868 -6.465125 -30.115243 -13.589684 -12.665409 57.563373 -6.210628 -8.545225 -12.571020 1.326547 38.912790 0.000000 0.000000 0.000000 10.788062 -35.138410 -6.166000 -0.626210 0.119956 0.099792 -0.527939 -0.875579 -3.694551 13.747563 3.305147 -1.164675 0.000000 0.000000 0.000000 12.830069 7.860124 -2.047333 0.260159 3.010402 1.883631 0.000000 0.000000 0.000000 16.806823 6.608926 -2.259845 -0.783980 -11.126186 -5.204082 34.235794 -2.412934 -57.929143 128.504204 -80.625834 124.970714 0.000000 0.000000 0.000000 9.384055 8.348753 -2.496660 11.487637 12.048250 1.584464 11.950058 -11.416928 75.928324 61.497548 59.125785 -71.341292 0.000000 0.000000 0.000000 
-7.597831 79.804596 4.977337 0.000000 0.000000 0.000000 16.359420 -32.276472 -5.126777 -75.798475 -14.569391 27.355635 48.651475 13.244745 -4.108464 14.138207 -10.498161 -17.839023 0.000000 0.000000 0.000000 15.085738 -31.762627 -5.853030 -35.750364 -12.529468 -9.961846 60.912815 -2.337753 -9.080582 -12.719159 2.418872 38.426347 0.000000 0.000000 0.000000 16.559771 -32.602279 -5.320625 -0.619673 0.047737 0.134124 -0.611133 -1.377019 -3.650615 13.703531 3.308312 -0.835709 0.000000 0.000000 0.000000 13.233723 7.733635 -1.772715 -0.136145 2.362855 1.547074 0.000000 0.000000 0.000000 17.214990 6.601144 -1.995671 -0.433962 -10.549171 -2.021327 35.516454 -2.789706 -62.358459 141.218915 -77.927063 139.751859 0.000000 0.000000 0.000000 10.102388 8.292146 -2.263387 11.583608 9.687161 0.912672 13.784855 -9.752395 74.942345 67.024476 63.160200 -78.165737 0.000000 0.000000 0.000000 
